<?xml version="1.0" encoding="utf-8"?>
<!DOCTYPE svg PUBLIC "-//W3C//DTD SVG 20010904//EN" "http://www.w3.org/TR/2001/REC-SVG-20010904/DTD/svg10.dtd">
<svg version="1.0" xmlns="http://www.w3.org/2000/svg" width="502pt" height="502pt" viewBox="0 0 502 502" style="" preserveAspectRatio="xMidYMid meet">
<g fill="#B654FFFF" stroke="#B654FFFF">
<path d="M 173.382 139.073 C 167.114 141.484 161.413 146.848 158.657 152.930 C 156.867 156.880 156.532 159.976 156.184 175.745 C 155.962 185.780 156.068 195.136 156.420 196.535 C 157.047 199.035 157.204 199.075 165.279 198.790 L 173.500 198.500 174.000 182.500 C 174.452 168.033 174.726 166.105 176.859 162.383 C 181.275 154.678 178.087 155.000 250.074 155.000 C 312.717 155.000 314.166 155.044 318.115 157.059 C 324.158 160.141 325.000 163.104 325.000 181.268 C 325.000 191.860 325.371 196.971 326.200 197.800 C 328.020 199.620 341.438 199.383 342.998 197.502 C 343.925 196.385 344.136 191.242 343.826 177.252 L 343.412 158.500 340.078 152.271 C 336.464 145.520 332.676 142.076 325.463 138.984 C 320.987 137.065 318.485 137.002 249.667 137.052 C 181.348 137.102 178.295 137.183 173.382 139.073 "/></g>
<g fill="#B654FFFF" stroke="#B654FFFF">
<path d="M 203.907 177.325 C 197.797 180.549 194.904 185.781 195.242 193.000 L 195.500 198.500 203.322 198.793 C 210.765 199.072 211.246 198.958 213.240 196.422 C 217.250 191.324 219.508 191.000 251.018 191.000 C 274.863 191.000 280.620 191.269 282.989 192.494 C 288.957 195.581 289.000 195.822 289.000 226.323 L 289.000 254.200 285.600 257.600 L 282.200 261.000 259.173 261.000 L 236.145 261.000 233.982 263.750 C 231.414 267.014 231.811 272.255 234.857 275.301 C 236.667 277.111 238.377 277.213 264.532 277.064 C 295.463 276.889 296.647 276.678 301.796 270.431 C 306.757 264.412 307.202 260.226 306.832 223.000 C 306.432 182.645 306.433 182.650 295.790 176.977 C 292.264 175.098 290.003 175.000 250.197 175.000 L 208.315 175.000 203.907 177.325 "/></g>
<g fill="#492879FF" stroke="#492879FF">
<path d="M 327.222 222.250 C 326.590 223.022 326.059 235.555 325.835 255.000 C 325.500 284.018 325.315 286.810 323.486 290.437 C 322.200 292.986 320.090 295.101 317.500 296.437 C 313.695 298.399 311.612 298.515 274.780 298.804 L 236.060 299.108 234.030 301.689 C 231.429 304.995 231.445 309.025 234.073 312.365 L 236.145 315.000 279.450 315.000 C 327.996 315.000 326.569 315.188 334.722 307.708 C 343.417 299.732 343.471 299.444 343.703 259.703 C 343.940 219.074 344.416 221.000 334.122 221.000 C 330.633 221.000 327.829 221.508 327.222 222.250 "/></g>
<g fill="#B654FFFF" stroke="#B654FFFF">
<path d="M 242.502 204.575 C 235.813 208.063 232.000 214.205 232.000 221.492 C 232.000 227.648 233.899 231.782 238.728 236.140 C 245.808 242.528 257.358 242.357 263.734 235.769 C 267.396 231.986 270.000 226.328 270.000 222.154 C 270.000 216.069 264.560 207.375 258.931 204.464 C 255.216 202.543 246.284 202.604 242.502 204.575 "/></g>
<g fill="#B654FFFF" stroke="#B654FFFF">
<path d="M 197.174 261.314 C 195.061 263.564 195.000 264.333 195.000 288.779 C 195.000 317.687 194.392 316.000 204.812 316.000 C 208.710 316.000 211.158 315.514 211.927 314.588 C 212.773 313.569 213.015 306.174 212.799 288.029 L 212.500 262.883 210.000 260.964 C 206.379 258.184 199.950 258.360 197.174 261.314 "/></g>
<g fill="#492879FF" stroke="#492879FF">
<path d="M 157.238 261.162 C 155.510 262.890 155.602 289.677 157.361 297.151 C 159.241 305.139 167.060 313.974 172.266 313.993 C 173.918 314.000 174.015 312.256 173.766 287.250 L 173.500 260.500 165.988 260.212 C 161.003 260.021 158.059 260.341 157.238 261.162 "/></g>
<g fill="#B654FFFF" stroke="#B654FFFF">
<path d="M 171.500 221.208 C 167.879 223.284 166.923 225.311 167.372 229.961 C 168.108 237.594 169.260 238.000 190.188 238.000 L 208.154 238.000 211.077 235.077 C 212.685 233.469 214.000 231.197 214.000 230.027 C 214.000 227.069 211.358 222.262 209.055 221.030 C 206.349 219.581 174.069 219.734 171.500 221.208 "/></g>
</svg>
